o Arm
v 0.07800 -0.20000 0.00000
v 0.07206 -0.20000 0.02755
v 0.05515 -0.20000 0.05091
v 0.02985 -0.20000 0.06652
v 0.00000 -0.20000 0.07200
v -0.02985 -0.20000 0.06652
v -0.05515 -0.20000 0.05091
v -0.07206 -0.20000 0.02755
v -0.07800 -0.20000 0.00000
v -0.07206 -0.20000 -0.02755
v -0.05515 -0.20000 -0.05091
v -0.02985 -0.20000 -0.06652
v -0.00000 -0.20000 -0.07200
v 0.02985 -0.20000 -0.06652
v 0.05515 -0.20000 -0.05091
v 0.07206 -0.20000 -0.02755
v 0.08600 0.02000 0.00000
v 0.07945 0.02000 0.02985
v 0.06081 0.02000 0.05515
v 0.03291 0.02000 0.07206
v 0.00000 0.02000 0.07800
v -0.03291 0.02000 0.07206
v -0.06081 0.02000 0.05515
v -0.07945 0.02000 0.02985
v -0.08600 0.02000 0.00000
v -0.07945 0.02000 -0.02985
v -0.06081 0.02000 -0.05515
v -0.03291 0.02000 -0.07206
v -0.00000 0.02000 -0.07800
v 0.03291 0.02000 -0.07206
v 0.06081 0.02000 -0.05515
v 0.07945 0.02000 -0.02985
v 0.09400 0.17000 0.00000
v 0.08684 0.17000 0.03253
v 0.06647 0.17000 0.06010
v 0.03597 0.17000 0.07853
v 0.00000 0.17000 0.08500
v -0.03597 0.17000 0.07853
v -0.06647 0.17000 0.06010
v -0.08684 0.17000 0.03253
v -0.09400 0.17000 0.00000
v -0.08684 0.17000 -0.03253
v -0.06647 0.17000 -0.06010
v -0.03597 0.17000 -0.07853
v -0.00000 0.17000 -0.08500
v 0.03597 0.17000 -0.07853
v 0.06647 0.17000 -0.06010
v 0.08684 0.17000 -0.03253
f 1 2 18
f 1 18 17
f 2 3 19
f 2 19 18
f 3 4 20
f 3 20 19
f 4 5 21
f 4 21 20
f 5 6 22
f 5 22 21
f 6 7 23
f 6 23 22
f 7 8 24
f 7 24 23
f 8 9 25
f 8 25 24
f 9 10 26
f 9 26 25
f 10 11 27
f 10 27 26
f 11 12 28
f 11 28 27
f 12 13 29
f 12 29 28
f 13 14 30
f 13 30 29
f 14 15 31
f 14 31 30
f 15 16 32
f 15 32 31
f 16 1 17
f 16 17 32
f 17 18 34
f 17 34 33
f 18 19 35
f 18 35 34
f 19 20 36
f 19 36 35
f 20 21 37
f 20 37 36
f 21 22 38
f 21 38 37
f 22 23 39
f 22 39 38
f 23 24 40
f 23 40 39
f 24 25 41
f 24 41 40
f 25 26 42
f 25 42 41
f 26 27 43
f 26 43 42
f 27 28 44
f 27 44 43
f 28 29 45
f 28 45 44
f 29 30 46
f 29 46 45
f 30 31 47
f 30 47 46
f 31 32 48
f 31 48 47
f 32 17 33
f 32 33 48
f 16 15 14 13 12 11 10 9 8 7 6 5 4 3 2 1
f 33 34 35 36 37 38 39 40 41 42 43 44 45 46 47 48
