o MittenHand
v 0.00000 -0.12500 0.00000
v 0.00000 -0.12500 0.00000
v 0.00000 -0.12500 0.00000
v 0.00000 -0.12500 0.00000
v 0.00000 -0.12500 0.00000
v -0.00000 -0.12500 0.00000
v -0.00000 -0.12500 0.00000
v -0.00000 -0.12500 0.00000
v -0.00000 -0.12500 0.00000
v -0.00000 -0.12500 0.00000
v -0.00000 -0.12500 -0.00000
v -0.00000 -0.12500 -0.00000
v -0.00000 -0.12500 -0.00000
v -0.00000 -0.12500 -0.00000
v 0.00000 -0.12500 -0.00000
v 0.00000 -0.12500 -0.00000
v 0.00000 -0.12500 -0.00000
v 0.00000 -0.12500 -0.00000
v 0.03489 -0.11746 0.00000
v 0.03278 -0.11746 0.01053
v 0.02672 -0.11746 0.01979
v 0.01744 -0.11746 0.02666
v 0.00606 -0.11746 0.03031
v -0.00606 -0.11746 0.03031
v -0.01744 -0.11746 0.02666
v -0.02672 -0.11746 0.01979
v -0.03278 -0.11746 0.01053
v -0.03489 -0.11746 0.00000
v -0.03278 -0.11746 -0.01053
v -0.02672 -0.11746 -0.01979
v -0.01744 -0.11746 -0.02666
v -0.00606 -0.11746 -0.03031
v 0.00606 -0.11746 -0.03031
v 0.01744 -0.11746 -0.02666
v 0.02672 -0.11746 -0.01979
v 0.03278 -0.11746 -0.01053
v 0.06556 -0.09576 0.00000
v 0.06161 -0.09576 0.01979
v 0.05023 -0.09576 0.03719
v 0.03278 -0.09576 0.05010
v 0.01139 -0.09576 0.05697
v -0.01139 -0.09576 0.05697
v -0.03278 -0.09576 0.05010
v -0.05023 -0.09576 0.03719
v -0.06161 -0.09576 0.01979
v -0.06556 -0.09576 0.00000
v -0.06161 -0.09576 -0.01979
v -0.05023 -0.09576 -0.03719
v -0.03278 -0.09576 -0.05010
v -0.01139 -0.09576 -0.05697
v 0.01139 -0.09576 -0.05697
v 0.03278 -0.09576 -0.05010
v 0.05023 -0.09576 -0.03719
v 0.06161 -0.09576 -0.01979
v 0.08833 -0.06250 0.00000
v 0.08301 -0.06250 0.02666
v 0.06767 -0.06250 0.05010
v 0.04417 -0.06250 0.06750
v 0.01534 -0.06250 0.07676
v -0.01534 -0.06250 0.07676
v -0.04417 -0.06250 0.06750
v -0.06767 -0.06250 0.05010
v -0.08301 -0.06250 0.02666
v -0.08833 -0.06250 0.00000
v -0.08301 -0.06250 -0.02666
v -0.06767 -0.06250 -0.05010
v -0.04417 -0.06250 -0.06750
v -0.01534 -0.06250 -0.07676
v 0.01534 -0.06250 -0.07676
v 0.04417 -0.06250 -0.06750
v 0.06767 -0.06250 -0.05010
v 0.08301 -0.06250 -0.02666
v 0.10045 -0.02171 0.00000
v 0.09439 -0.02171 0.03031
v 0.07695 -0.02171 0.05697
v 0.05023 -0.02171 0.07676
v 0.01744 -0.02171 0.08729
v -0.01744 -0.02171 0.08729
v -0.05023 -0.02171 0.07676
v -0.07695 -0.02171 0.05697
v -0.09439 -0.02171 0.03031
v -0.10045 -0.02171 0.00000
v -0.09439 -0.02171 -0.03031
v -0.07695 -0.02171 -0.05697
v -0.05023 -0.02171 -0.07676
v -0.01744 -0.02171 -0.08729
v 0.01744 -0.02171 -0.08729
v 0.05023 -0.02171 -0.07676
v 0.07695 -0.02171 -0.05697
v 0.09439 -0.02171 -0.03031
v 0.10045 0.02171 0.00000
v 0.09439 0.02171 0.03031
v 0.07695 0.02171 0.05697
v 0.05023 0.02171 0.07676
v 0.01744 0.02171 0.08729
v -0.01744 0.02171 0.08729
v -0.05023 0.02171 0.07676
v -0.07695 0.02171 0.05697
v -0.09439 0.02171 0.03031
v -0.10045 0.02171 0.00000
v -0.09439 0.02171 -0.03031
v -0.07695 0.02171 -0.05697
v -0.05023 0.02171 -0.07676
v -0.01744 0.02171 -0.08729
v 0.01744 0.02171 -0.08729
v 0.05023 0.02171 -0.07676
v 0.07695 0.02171 -0.05697
v 0.09439 0.02171 -0.03031
v 0.08833 0.06250 0.00000
v 0.08301 0.06250 0.02666
v 0.06767 0.06250 0.05010
v 0.04417 0.06250 0.06750
v 0.01534 0.06250 0.07676
v -0.01534 0.06250 0.07676
v -0.04417 0.06250 0.06750
v -0.06767 0.06250 0.05010
v -0.08301 0.06250 0.02666
v -0.08833 0.06250 0.00000
v -0.08301 0.06250 -0.02666
v -0.06767 0.06250 -0.05010
v -0.04417 0.06250 -0.06750
v -0.01534 0.06250 -0.07676
v 0.01534 0.06250 -0.07676
v 0.04417 0.06250 -0.06750
v 0.06767 0.06250 -0.05010
v 0.08301 0.06250 -0.02666
v 0.06556 0.09576 0.00000
v 0.06161 0.09576 0.01979
v 0.05023 0.09576 0.03719
v 0.03278 0.09576 0.05010
v 0.01139 0.09576 0.05697
v -0.01139 0.09576 0.05697
v -0.03278 0.09576 0.05010
v -0.05023 0.09576 0.03719
v -0.06161 0.09576 0.01979
v -0.06556 0.09576 0.00000
v -0.06161 0.09576 -0.01979
v -0.05023 0.09576 -0.03719
v -0.03278 0.09576 -0.05010
v -0.01139 0.09576 -0.05697
v 0.01139 0.09576 -0.05697
v 0.03278 0.09576 -0.05010
v 0.05023 0.09576 -0.03719
v 0.06161 0.09576 -0.01979
v 0.03489 0.11746 0.00000
v 0.03278 0.11746 0.01053
v 0.02672 0.11746 0.01979
v 0.01744 0.11746 0.02666
v 0.00606 0.11746 0.03031
v -0.00606 0.11746 0.03031
v -0.01744 0.11746 0.02666
v -0.02672 0.11746 0.01979
v -0.03278 0.11746 0.01053
v -0.03489 0.11746 0.00000
v -0.03278 0.11746 -0.01053
v -0.02672 0.11746 -0.01979
v -0.01744 0.11746 -0.02666
v -0.00606 0.11746 -0.03031
v 0.00606 0.11746 -0.03031
v 0.01744 0.11746 -0.02666
v 0.02672 0.11746 -0.01979
v 0.03278 0.11746 -0.01053
v 0.00000 0.12500 0.00000
v 0.00000 0.12500 0.00000
v 0.00000 0.12500 0.00000
v 0.00000 0.12500 0.00000
v 0.00000 0.12500 0.00000
v -0.00000 0.12500 0.00000
v -0.00000 0.12500 0.00000
v -0.00000 0.12500 0.00000
v -0.00000 0.12500 0.00000
v -0.00000 0.12500 0.00000
v -0.00000 0.12500 -0.00000
v -0.00000 0.12500 -0.00000
v -0.00000 0.12500 -0.00000
v -0.00000 0.12500 -0.00000
v 0.00000 0.12500 -0.00000
v 0.00000 0.12500 -0.00000
v 0.00000 0.12500 -0.00000
v 0.00000 0.12500 -0.00000
f 1 2 20
f 1 20 19
f 2 3 21
f 2 21 20
f 3 4 22
f 3 22 21
f 4 5 23
f 4 23 22
f 5 6 24
f 5 24 23
f 6 7 25
f 6 25 24
f 7 8 26
f 7 26 25
f 8 9 27
f 8 27 26
f 9 10 28
f 9 28 27
f 10 11 29
f 10 29 28
f 11 12 30
f 11 30 29
f 12 13 31
f 12 31 30
f 13 14 32
f 13 32 31
f 14 15 33
f 14 33 32
f 15 16 34
f 15 34 33
f 16 17 35
f 16 35 34
f 17 18 36
f 17 36 35
f 18 1 19
f 18 19 36
f 19 20 38
f 19 38 37
f 20 21 39
f 20 39 38
f 21 22 40
f 21 40 39
f 22 23 41
f 22 41 40
f 23 24 42
f 23 42 41
f 24 25 43
f 24 43 42
f 25 26 44
f 25 44 43
f 26 27 45
f 26 45 44
f 27 28 46
f 27 46 45
f 28 29 47
f 28 47 46
f 29 30 48
f 29 48 47
f 30 31 49
f 30 49 48
f 31 32 50
f 31 50 49
f 32 33 51
f 32 51 50
f 33 34 52
f 33 52 51
f 34 35 53
f 34 53 52
f 35 36 54
f 35 54 53
f 36 19 37
f 36 37 54
f 37 38 56
f 37 56 55
f 38 39 57
f 38 57 56
f 39 40 58
f 39 58 57
f 40 41 59
f 40 59 58
f 41 42 60
f 41 60 59
f 42 43 61
f 42 61 60
f 43 44 62
f 43 62 61
f 44 45 63
f 44 63 62
f 45 46 64
f 45 64 63
f 46 47 65
f 46 65 64
f 47 48 66
f 47 66 65
f 48 49 67
f 48 67 66
f 49 50 68
f 49 68 67
f 50 51 69
f 50 69 68
f 51 52 70
f 51 70 69
f 52 53 71
f 52 71 70
f 53 54 72
f 53 72 71
f 54 37 55
f 54 55 72
f 55 56 74
f 55 74 73
f 56 57 75
f 56 75 74
f 57 58 76
f 57 76 75
f 58 59 77
f 58 77 76
f 59 60 78
f 59 78 77
f 60 61 79
f 60 79 78
f 61 62 80
f 61 80 79
f 62 63 81
f 62 81 80
f 63 64 82
f 63 82 81
f 64 65 83
f 64 83 82
f 65 66 84
f 65 84 83
f 66 67 85
f 66 85 84
f 67 68 86
f 67 86 85
f 68 69 87
f 68 87 86
f 69 70 88
f 69 88 87
f 70 71 89
f 70 89 88
f 71 72 90
f 71 90 89
f 72 55 73
f 72 73 90
f 73 74 92
f 73 92 91
f 74 75 93
f 74 93 92
f 75 76 94
f 75 94 93
f 76 77 95
f 76 95 94
f 77 78 96
f 77 96 95
f 78 79 97
f 78 97 96
f 79 80 98
f 79 98 97
f 80 81 99
f 80 99 98
f 81 82 100
f 81 100 99
f 82 83 101
f 82 101 100
f 83 84 102
f 83 102 101
f 84 85 103
f 84 103 102
f 85 86 104
f 85 104 103
f 86 87 105
f 86 105 104
f 87 88 106
f 87 106 105
f 88 89 107
f 88 107 106
f 89 90 108
f 89 108 107
f 90 73 91
f 90 91 108
f 91 92 110
f 91 110 109
f 92 93 111
f 92 111 110
f 93 94 112
f 93 112 111
f 94 95 113
f 94 113 112
f 95 96 114
f 95 114 113
f 96 97 115
f 96 115 114
f 97 98 116
f 97 116 115
f 98 99 117
f 98 117 116
f 99 100 118
f 99 118 117
f 100 101 119
f 100 119 118
f 101 102 120
f 101 120 119
f 102 103 121
f 102 121 120
f 103 104 122
f 103 122 121
f 104 105 123
f 104 123 122
f 105 106 124
f 105 124 123
f 106 107 125
f 106 125 124
f 107 108 126
f 107 126 125
f 108 91 109
f 108 109 126
f 109 110 128
f 109 128 127
f 110 111 129
f 110 129 128
f 111 112 130
f 111 130 129
f 112 113 131
f 112 131 130
f 113 114 132
f 113 132 131
f 114 115 133
f 114 133 132
f 115 116 134
f 115 134 133
f 116 117 135
f 116 135 134
f 117 118 136
f 117 136 135
f 118 119 137
f 118 137 136
f 119 120 138
f 119 138 137
f 120 121 139
f 120 139 138
f 121 122 140
f 121 140 139
f 122 123 141
f 122 141 140
f 123 124 142
f 123 142 141
f 124 125 143
f 124 143 142
f 125 126 144
f 125 144 143
f 126 109 127
f 126 127 144
f 127 128 146
f 127 146 145
f 128 129 147
f 128 147 146
f 129 130 148
f 129 148 147
f 130 131 149
f 130 149 148
f 131 132 150
f 131 150 149
f 132 133 151
f 132 151 150
f 133 134 152
f 133 152 151
f 134 135 153
f 134 153 152
f 135 136 154
f 135 154 153
f 136 137 155
f 136 155 154
f 137 138 156
f 137 156 155
f 138 139 157
f 138 157 156
f 139 140 158
f 139 158 157
f 140 141 159
f 140 159 158
f 141 142 160
f 141 160 159
f 142 143 161
f 142 161 160
f 143 144 162
f 143 162 161
f 144 127 145
f 144 145 162
f 145 146 164
f 145 164 163
f 146 147 165
f 146 165 164
f 147 148 166
f 147 166 165
f 148 149 167
f 148 167 166
f 149 150 168
f 149 168 167
f 150 151 169
f 150 169 168
f 151 152 170
f 151 170 169
f 152 153 171
f 152 171 170
f 153 154 172
f 153 172 171
f 154 155 173
f 154 173 172
f 155 156 174
f 155 174 173
f 156 157 175
f 156 175 174
f 157 158 176
f 157 176 175
f 158 159 177
f 158 177 176
f 159 160 178
f 159 178 177
f 160 161 179
f 160 179 178
f 161 162 180
f 161 180 179
f 162 145 163
f 162 163 180
