o Head
v 0.00000 -0.37500 0.00000
v 0.00000 -0.37500 0.00000
v 0.00000 -0.37500 0.00000
v 0.00000 -0.37500 0.00000
v 0.00000 -0.37500 0.00000
v 0.00000 -0.37500 0.00000
v 0.00000 -0.37500 0.00000
v -0.00000 -0.37500 0.00000
v -0.00000 -0.37500 0.00000
v -0.00000 -0.37500 0.00000
v -0.00000 -0.37500 0.00000
v -0.00000 -0.37500 0.00000
v -0.00000 -0.37500 0.00000
v -0.00000 -0.37500 -0.00000
v -0.00000 -0.37500 -0.00000
v -0.00000 -0.37500 -0.00000
v -0.00000 -0.37500 -0.00000
v -0.00000 -0.37500 -0.00000
v -0.00000 -0.37500 -0.00000
v 0.00000 -0.37500 -0.00000
v 0.00000 -0.37500 -0.00000
v 0.00000 -0.37500 -0.00000
v 0.00000 -0.37500 -0.00000
v 0.00000 -0.37500 -0.00000
v 0.11517 -0.36222 0.00000
v 0.11125 -0.36222 0.02445
v 0.09974 -0.36222 0.04723
v 0.08144 -0.36222 0.06680
v 0.05759 -0.36222 0.08181
v 0.02981 -0.36222 0.09125
v 0.00000 -0.36222 0.09447
v -0.02981 -0.36222 0.09125
v -0.05759 -0.36222 0.08181
v -0.08144 -0.36222 0.06680
v -0.09974 -0.36222 0.04723
v -0.11125 -0.36222 0.02445
v -0.11517 -0.36222 0.00000
v -0.11125 -0.36222 -0.02445
v -0.09974 -0.36222 -0.04723
v -0.08144 -0.36222 -0.06680
v -0.05759 -0.36222 -0.08181
v -0.02981 -0.36222 -0.09125
v -0.00000 -0.36222 -0.09447
v 0.02981 -0.36222 -0.09125
v 0.05759 -0.36222 -0.08181
v 0.08144 -0.36222 -0.06680
v 0.09974 -0.36222 -0.04723
v 0.11125 -0.36222 -0.02445
v 0.22250 -0.32476 0.00000
v 0.21492 -0.32476 0.04723
v 0.19269 -0.32476 0.09125
v 0.15733 -0.32476 0.12905
v 0.11125 -0.32476 0.15805
v 0.05759 -0.32476 0.17628
v 0.00000 -0.32476 0.18250
v -0.05759 -0.32476 0.17628
v -0.11125 -0.32476 0.15805
v -0.15733 -0.32476 0.12905
v -0.19269 -0.32476 0.09125
v -0.21492 -0.32476 0.04723
v -0.22250 -0.32476 0.00000
v -0.21492 -0.32476 -0.04723
v -0.19269 -0.32476 -0.09125
v -0.15733 -0.32476 -0.12905
v -0.11125 -0.32476 -0.15805
v -0.05759 -0.32476 -0.17628
v -0.00000 -0.32476 -0.18250
v 0.05759 -0.32476 -0.17628
v 0.11125 -0.32476 -0.15805
v 0.15733 -0.32476 -0.12905
v 0.19269 -0.32476 -0.09125
v 0.21492 -0.32476 -0.04723
v 0.31466 -0.26517 0.00000
v 0.30394 -0.26517 0.06680
v 0.27251 -0.26517 0.12905
v 0.22250 -0.26517 0.18250
v 0.15733 -0.26517 0.22352
v 0.08144 -0.26517 0.24930
v 0.00000 -0.26517 0.25809
v -0.08144 -0.26517 0.24930
v -0.15733 -0.26517 0.22352
v -0.22250 -0.26517 0.18250
v -0.27251 -0.26517 0.12905
v -0.30394 -0.26517 0.06680
v -0.31466 -0.26517 0.00000
v -0.30394 -0.26517 -0.06680
v -0.27251 -0.26517 -0.12905
v -0.22250 -0.26517 -0.18250
v -0.15733 -0.26517 -0.22352
v -0.08144 -0.26517 -0.24930
v -0.00000 -0.26517 -0.25809
v 0.08144 -0.26517 -0.24930
v 0.15733 -0.26517 -0.22352
v 0.22250 -0.26517 -0.18250
v 0.27251 -0.26517 -0.12905
v 0.30394 -0.26517 -0.06680
v 0.38538 -0.18750 0.00000
v 0.37225 -0.18750 0.08181
v 0.33375 -0.18750 0.15805
v 0.27251 -0.18750 0.22352
v 0.19269 -0.18750 0.27375
v 0.09974 -0.18750 0.30533
v 0.00000 -0.18750 0.31610
v -0.09974 -0.18750 0.30533
v -0.19269 -0.18750 0.27375
v -0.27251 -0.18750 0.22352
v -0.33375 -0.18750 0.15805
v -0.37225 -0.18750 0.08181
v -0.38538 -0.18750 0.00000
v -0.37225 -0.18750 -0.08181
v -0.33375 -0.18750 -0.15805
v -0.27251 -0.18750 -0.22352
v -0.19269 -0.18750 -0.27375
v -0.09974 -0.18750 -0.30533
v -0.00000 -0.18750 -0.31610
v 0.09974 -0.18750 -0.30533
v 0.19269 -0.18750 -0.27375
v 0.27251 -0.18750 -0.22352
v 0.33375 -0.18750 -0.15805
v 0.37225 -0.18750 -0.08181
v 0.42984 -0.09706 0.00000
v 0.41519 -0.09706 0.09125
v 0.37225 -0.09706 0.17628
v 0.30394 -0.09706 0.24930
v 0.21492 -0.09706 0.30533
v 0.11125 -0.09706 0.34055
v 0.00000 -0.09706 0.35256
v -0.11125 -0.09706 0.34055
v -0.21492 -0.09706 0.30533
v -0.30394 -0.09706 0.24930
v -0.37225 -0.09706 0.17628
v -0.41519 -0.09706 0.09125
v -0.42984 -0.09706 0.00000
v -0.41519 -0.09706 -0.09125
v -0.37225 -0.09706 -0.17628
v -0.30394 -0.09706 -0.24930
v -0.21492 -0.09706 -0.30533
v -0.11125 -0.09706 -0.34055
v -0.00000 -0.09706 -0.35256
v 0.11125 -0.09706 -0.34055
v 0.21492 -0.09706 -0.30533
v 0.30394 -0.09706 -0.24930
v 0.37225 -0.09706 -0.17628
v 0.41519 -0.09706 -0.09125
v 0.44500 0.00000 0.00000
v 0.42984 0.00000 0.09447
v 0.38538 0.00000 0.18250
v 0.31466 0.00000 0.25809
v 0.22250 0.00000 0.31610
v 0.11517 0.00000 0.35256
v 0.00000 0.00000 0.36500
v -0.11517 0.00000 0.35256
v -0.22250 0.00000 0.31610
v -0.31466 0.00000 0.25809
v -0.38538 0.00000 0.18250
v -0.42984 0.00000 0.09447
v -0.44500 0.00000 0.00000
v -0.42984 0.00000 -0.09447
v -0.38538 0.00000 -0.18250
v -0.31466 0.00000 -0.25809
v -0.22250 0.00000 -0.31610
v -0.11517 0.00000 -0.35256
v -0.00000 0.00000 -0.36500
v 0.11517 0.00000 -0.35256
v 0.22250 0.00000 -0.31610
v 0.31466 0.00000 -0.25809
v 0.38538 0.00000 -0.18250
v 0.42984 0.00000 -0.09447
v 0.42984 0.09706 0.00000
v 0.41519 0.09706 0.09125
v 0.37225 0.09706 0.17628
v 0.30394 0.09706 0.24930
v 0.21492 0.09706 0.30533
v 0.11125 0.09706 0.34055
v 0.00000 0.09706 0.35256
v -0.11125 0.09706 0.34055
v -0.21492 0.09706 0.30533
v -0.30394 0.09706 0.24930
v -0.37225 0.09706 0.17628
v -0.41519 0.09706 0.09125
v -0.42984 0.09706 0.00000
v -0.41519 0.09706 -0.09125
v -0.37225 0.09706 -0.17628
v -0.30394 0.09706 -0.24930
v -0.21492 0.09706 -0.30533
v -0.11125 0.09706 -0.34055
v -0.00000 0.09706 -0.35256
v 0.11125 0.09706 -0.34055
v 0.21492 0.09706 -0.30533
v 0.30394 0.09706 -0.24930
v 0.37225 0.09706 -0.17628
v 0.41519 0.09706 -0.09125
v 0.38538 0.18750 0.00000
v 0.37225 0.18750 0.08181
v 0.33375 0.18750 0.15805
v 0.27251 0.18750 0.22352
v 0.19269 0.18750 0.27375
v 0.09974 0.18750 0.30533
v 0.00000 0.18750 0.31610
v -0.09974 0.18750 0.30533
v -0.19269 0.18750 0.27375
v -0.27251 0.18750 0.22352
v -0.33375 0.18750 0.15805
v -0.37225 0.18750 0.08181
v -0.38538 0.18750 0.00000
v -0.37225 0.18750 -0.08181
v -0.33375 0.18750 -0.15805
v -0.27251 0.18750 -0.22352
v -0.19269 0.18750 -0.27375
v -0.09974 0.18750 -0.30533
v -0.00000 0.18750 -0.31610
v 0.09974 0.18750 -0.30533
v 0.19269 0.18750 -0.27375
v 0.27251 0.18750 -0.22352
v 0.33375 0.18750 -0.15805
v 0.37225 0.18750 -0.08181
v 0.31466 0.26517 0.00000
v 0.30394 0.26517 0.06680
v 0.27251 0.26517 0.12905
v 0.22250 0.26517 0.18250
v 0.15733 0.26517 0.22352
v 0.08144 0.26517 0.24930
v 0.00000 0.26517 0.25809
v -0.08144 0.26517 0.24930
v -0.15733 0.26517 0.22352
v -0.22250 0.26517 0.18250
v -0.27251 0.26517 0.12905
v -0.30394 0.26517 0.06680
v -0.31466 0.26517 0.00000
v -0.30394 0.26517 -0.06680
v -0.27251 0.26517 -0.12905
v -0.22250 0.26517 -0.18250
v -0.15733 0.26517 -0.22352
v -0.08144 0.26517 -0.24930
v -0.00000 0.26517 -0.25809
v 0.08144 0.26517 -0.24930
v 0.15733 0.26517 -0.22352
v 0.22250 0.26517 -0.18250
v 0.27251 0.26517 -0.12905
v 0.30394 0.26517 -0.06680
v 0.22250 0.32476 0.00000
v 0.21492 0.32476 0.04723
v 0.19269 0.32476 0.09125
v 0.15733 0.32476 0.12905
v 0.11125 0.32476 0.15805
v 0.05759 0.32476 0.17628
v 0.00000 0.32476 0.18250
v -0.05759 0.32476 0.17628
v -0.11125 0.32476 0.15805
v -0.15733 0.32476 0.12905
v -0.19269 0.32476 0.09125
v -0.21492 0.32476 0.04723
v -0.22250 0.32476 0.00000
v -0.21492 0.32476 -0.04723
v -0.19269 0.32476 -0.09125
v -0.15733 0.32476 -0.12905
v -0.11125 0.32476 -0.15805
v -0.05759 0.32476 -0.17628
v -0.00000 0.32476 -0.18250
v 0.05759 0.32476 -0.17628
v 0.11125 0.32476 -0.15805
v 0.15733 0.32476 -0.12905
v 0.19269 0.32476 -0.09125
v 0.21492 0.32476 -0.04723
v 0.11517 0.36222 0.00000
v 0.11125 0.36222 0.02445
v 0.09974 0.36222 0.04723
v 0.08144 0.36222 0.06680
v 0.05759 0.36222 0.08181
v 0.02981 0.36222 0.09125
v 0.00000 0.36222 0.09447
v -0.02981 0.36222 0.09125
v -0.05759 0.36222 0.08181
v -0.08144 0.36222 0.06680
v -0.09974 0.36222 0.04723
v -0.11125 0.36222 0.02445
v -0.11517 0.36222 0.00000
v -0.11125 0.36222 -0.02445
v -0.09974 0.36222 -0.04723
v -0.08144 0.36222 -0.06680
v -0.05759 0.36222 -0.08181
v -0.02981 0.36222 -0.09125
v -0.00000 0.36222 -0.09447
v 0.02981 0.36222 -0.09125
v 0.05759 0.36222 -0.08181
v 0.08144 0.36222 -0.06680
v 0.09974 0.36222 -0.04723
v 0.11125 0.36222 -0.02445
v 0.00000 0.37500 0.00000
v 0.00000 0.37500 0.00000
v 0.00000 0.37500 0.00000
v 0.00000 0.37500 0.00000
v 0.00000 0.37500 0.00000
v 0.00000 0.37500 0.00000
v 0.00000 0.37500 0.00000
v -0.00000 0.37500 0.00000
v -0.00000 0.37500 0.00000
v -0.00000 0.37500 0.00000
v -0.00000 0.37500 0.00000
v -0.00000 0.37500 0.00000
v -0.00000 0.37500 0.00000
v -0.00000 0.37500 -0.00000
v -0.00000 0.37500 -0.00000
v -0.00000 0.37500 -0.00000
v -0.00000 0.37500 -0.00000
v -0.00000 0.37500 -0.00000
v -0.00000 0.37500 -0.00000
v 0.00000 0.37500 -0.00000
v 0.00000 0.37500 -0.00000
v 0.00000 0.37500 -0.00000
v 0.00000 0.37500 -0.00000
v 0.00000 0.37500 -0.00000
f 1 2 26
f 1 26 25
f 2 3 27
f 2 27 26
f 3 4 28
f 3 28 27
f 4 5 29
f 4 29 28
f 5 6 30
f 5 30 29
f 6 7 31
f 6 31 30
f 7 8 32
f 7 32 31
f 8 9 33
f 8 33 32
f 9 10 34
f 9 34 33
f 10 11 35
f 10 35 34
f 11 12 36
f 11 36 35
f 12 13 37
f 12 37 36
f 13 14 38
f 13 38 37
f 14 15 39
f 14 39 38
f 15 16 40
f 15 40 39
f 16 17 41
f 16 41 40
f 17 18 42
f 17 42 41
f 18 19 43
f 18 43 42
f 19 20 44
f 19 44 43
f 20 21 45
f 20 45 44
f 21 22 46
f 21 46 45
f 22 23 47
f 22 47 46
f 23 24 48
f 23 48 47
f 24 1 25
f 24 25 48
f 25 26 50
f 25 50 49
f 26 27 51
f 26 51 50
f 27 28 52
f 27 52 51
f 28 29 53
f 28 53 52
f 29 30 54
f 29 54 53
f 30 31 55
f 30 55 54
f 31 32 56
f 31 56 55
f 32 33 57
f 32 57 56
f 33 34 58
f 33 58 57
f 34 35 59
f 34 59 58
f 35 36 60
f 35 60 59
f 36 37 61
f 36 61 60
f 37 38 62
f 37 62 61
f 38 39 63
f 38 63 62
f 39 40 64
f 39 64 63
f 40 41 65
f 40 65 64
f 41 42 66
f 41 66 65
f 42 43 67
f 42 67 66
f 43 44 68
f 43 68 67
f 44 45 69
f 44 69 68
f 45 46 70
f 45 70 69
f 46 47 71
f 46 71 70
f 47 48 72
f 47 72 71
f 48 25 49
f 48 49 72
f 49 50 74
f 49 74 73
f 50 51 75
f 50 75 74
f 51 52 76
f 51 76 75
f 52 53 77
f 52 77 76
f 53 54 78
f 53 78 77
f 54 55 79
f 54 79 78
f 55 56 80
f 55 80 79
f 56 57 81
f 56 81 80
f 57 58 82
f 57 82 81
f 58 59 83
f 58 83 82
f 59 60 84
f 59 84 83
f 60 61 85
f 60 85 84
f 61 62 86
f 61 86 85
f 62 63 87
f 62 87 86
f 63 64 88
f 63 88 87
f 64 65 89
f 64 89 88
f 65 66 90
f 65 90 89
f 66 67 91
f 66 91 90
f 67 68 92
f 67 92 91
f 68 69 93
f 68 93 92
f 69 70 94
f 69 94 93
f 70 71 95
f 70 95 94
f 71 72 96
f 71 96 95
f 72 49 73
f 72 73 96
f 73 74 98
f 73 98 97
f 74 75 99
f 74 99 98
f 75 76 100
f 75 100 99
f 76 77 101
f 76 101 100
f 77 78 102
f 77 102 101
f 78 79 103
f 78 103 102
f 79 80 104
f 79 104 103
f 80 81 105
f 80 105 104
f 81 82 106
f 81 106 105
f 82 83 107
f 82 107 106
f 83 84 108
f 83 108 107
f 84 85 109
f 84 109 108
f 85 86 110
f 85 110 109
f 86 87 111
f 86 111 110
f 87 88 112
f 87 112 111
f 88 89 113
f 88 113 112
f 89 90 114
f 89 114 113
f 90 91 115
f 90 115 114
f 91 92 116
f 91 116 115
f 92 93 117
f 92 117 116
f 93 94 118
f 93 118 117
f 94 95 119
f 94 119 118
f 95 96 120
f 95 120 119
f 96 73 97
f 96 97 120
f 97 98 122
f 97 122 121
f 98 99 123
f 98 123 122
f 99 100 124
f 99 124 123
f 100 101 125
f 100 125 124
f 101 102 126
f 101 126 125
f 102 103 127
f 102 127 126
f 103 104 128
f 103 128 127
f 104 105 129
f 104 129 128
f 105 106 130
f 105 130 129
f 106 107 131
f 106 131 130
f 107 108 132
f 107 132 131
f 108 109 133
f 108 133 132
f 109 110 134
f 109 134 133
f 110 111 135
f 110 135 134
f 111 112 136
f 111 136 135
f 112 113 137
f 112 137 136
f 113 114 138
f 113 138 137
f 114 115 139
f 114 139 138
f 115 116 140
f 115 140 139
f 116 117 141
f 116 141 140
f 117 118 142
f 117 142 141
f 118 119 143
f 118 143 142
f 119 120 144
f 119 144 143
f 120 97 121
f 120 121 144
f 121 122 146
f 121 146 145
f 122 123 147
f 122 147 146
f 123 124 148
f 123 148 147
f 124 125 149
f 124 149 148
f 125 126 150
f 125 150 149
f 126 127 151
f 126 151 150
f 127 128 152
f 127 152 151
f 128 129 153
f 128 153 152
f 129 130 154
f 129 154 153
f 130 131 155
f 130 155 154
f 131 132 156
f 131 156 155
f 132 133 157
f 132 157 156
f 133 134 158
f 133 158 157
f 134 135 159
f 134 159 158
f 135 136 160
f 135 160 159
f 136 137 161
f 136 161 160
f 137 138 162
f 137 162 161
f 138 139 163
f 138 163 162
f 139 140 164
f 139 164 163
f 140 141 165
f 140 165 164
f 141 142 166
f 141 166 165
f 142 143 167
f 142 167 166
f 143 144 168
f 143 168 167
f 144 121 145
f 144 145 168
f 145 146 170
f 145 170 169
f 146 147 171
f 146 171 170
f 147 148 172
f 147 172 171
f 148 149 173
f 148 173 172
f 149 150 174
f 149 174 173
f 150 151 175
f 150 175 174
f 151 152 176
f 151 176 175
f 152 153 177
f 152 177 176
f 153 154 178
f 153 178 177
f 154 155 179
f 154 179 178
f 155 156 180
f 155 180 179
f 156 157 181
f 156 181 180
f 157 158 182
f 157 182 181
f 158 159 183
f 158 183 182
f 159 160 184
f 159 184 183
f 160 161 185
f 160 185 184
f 161 162 186
f 161 186 185
f 162 163 187
f 162 187 186
f 163 164 188
f 163 188 187
f 164 165 189
f 164 189 188
f 165 166 190
f 165 190 189
f 166 167 191
f 166 191 190
f 167 168 192
f 167 192 191
f 168 145 169
f 168 169 192
f 169 170 194
f 169 194 193
f 170 171 195
f 170 195 194
f 171 172 196
f 171 196 195
f 172 173 197
f 172 197 196
f 173 174 198
f 173 198 197
f 174 175 199
f 174 199 198
f 175 176 200
f 175 200 199
f 176 177 201
f 176 201 200
f 177 178 202
f 177 202 201
f 178 179 203
f 178 203 202
f 179 180 204
f 179 204 203
f 180 181 205
f 180 205 204
f 181 182 206
f 181 206 205
f 182 183 207
f 182 207 206
f 183 184 208
f 183 208 207
f 184 185 209
f 184 209 208
f 185 186 210
f 185 210 209
f 186 187 211
f 186 211 210
f 187 188 212
f 187 212 211
f 188 189 213
f 188 213 212
f 189 190 214
f 189 214 213
f 190 191 215
f 190 215 214
f 191 192 216
f 191 216 215
f 192 169 193
f 192 193 216
f 193 194 218
f 193 218 217
f 194 195 219
f 194 219 218
f 195 196 220
f 195 220 219
f 196 197 221
f 196 221 220
f 197 198 222
f 197 222 221
f 198 199 223
f 198 223 222
f 199 200 224
f 199 224 223
f 200 201 225
f 200 225 224
f 201 202 226
f 201 226 225
f 202 203 227
f 202 227 226
f 203 204 228
f 203 228 227
f 204 205 229
f 204 229 228
f 205 206 230
f 205 230 229
f 206 207 231
f 206 231 230
f 207 208 232
f 207 232 231
f 208 209 233
f 208 233 232
f 209 210 234
f 209 234 233
f 210 211 235
f 210 235 234
f 211 212 236
f 211 236 235
f 212 213 237
f 212 237 236
f 213 214 238
f 213 238 237
f 214 215 239
f 214 239 238
f 215 216 240
f 215 240 239
f 216 193 217
f 216 217 240
f 217 218 242
f 217 242 241
f 218 219 243
f 218 243 242
f 219 220 244
f 219 244 243
f 220 221 245
f 220 245 244
f 221 222 246
f 221 246 245
f 222 223 247
f 222 247 246
f 223 224 248
f 223 248 247
f 224 225 249
f 224 249 248
f 225 226 250
f 225 250 249
f 226 227 251
f 226 251 250
f 227 228 252
f 227 252 251
f 228 229 253
f 228 253 252
f 229 230 254
f 229 254 253
f 230 231 255
f 230 255 254
f 231 232 256
f 231 256 255
f 232 233 257
f 232 257 256
f 233 234 258
f 233 258 257
f 234 235 259
f 234 259 258
f 235 236 260
f 235 260 259
f 236 237 261
f 236 261 260
f 237 238 262
f 237 262 261
f 238 239 263
f 238 263 262
f 239 240 264
f 239 264 263
f 240 217 241
f 240 241 264
f 241 242 266
f 241 266 265
f 242 243 267
f 242 267 266
f 243 244 268
f 243 268 267
f 244 245 269
f 244 269 268
f 245 246 270
f 245 270 269
f 246 247 271
f 246 271 270
f 247 248 272
f 247 272 271
f 248 249 273
f 248 273 272
f 249 250 274
f 249 274 273
f 250 251 275
f 250 275 274
f 251 252 276
f 251 276 275
f 252 253 277
f 252 277 276
f 253 254 278
f 253 278 277
f 254 255 279
f 254 279 278
f 255 256 280
f 255 280 279
f 256 257 281
f 256 281 280
f 257 258 282
f 257 282 281
f 258 259 283
f 258 283 282
f 259 260 284
f 259 284 283
f 260 261 285
f 260 285 284
f 261 262 286
f 261 286 285
f 262 263 287
f 262 287 286
f 263 264 288
f 263 288 287
f 264 241 265
f 264 265 288
f 265 266 290
f 265 290 289
f 266 267 291
f 266 291 290
f 267 268 292
f 267 292 291
f 268 269 293
f 268 293 292
f 269 270 294
f 269 294 293
f 270 271 295
f 270 295 294
f 271 272 296
f 271 296 295
f 272 273 297
f 272 297 296
f 273 274 298
f 273 298 297
f 274 275 299
f 274 299 298
f 275 276 300
f 275 300 299
f 276 277 301
f 276 301 300
f 277 278 302
f 277 302 301
f 278 279 303
f 278 303 302
f 279 280 304
f 279 304 303
f 280 281 305
f 280 305 304
f 281 282 306
f 281 306 305
f 282 283 307
f 282 307 306
f 283 284 308
f 283 308 307
f 284 285 309
f 284 309 308
f 285 286 310
f 285 310 309
f 286 287 311
f 286 311 310
f 287 288 312
f 287 312 311
f 288 265 289
f 288 289 312
