o TrouserLeg
v 0.10500 -0.26000 0.00000
v 0.09867 -0.26000 0.03249
v 0.08043 -0.26000 0.06106
v 0.05250 -0.26000 0.08227
v 0.01823 -0.26000 0.09356
v -0.01823 -0.26000 0.09356
v -0.05250 -0.26000 0.08227
v -0.08043 -0.26000 0.06106
v -0.09867 -0.26000 0.03249
v -0.10500 -0.26000 0.00000
v -0.09867 -0.26000 -0.03249
v -0.08043 -0.26000 -0.06106
v -0.05250 -0.26000 -0.08227
v -0.01823 -0.26000 -0.09356
v 0.01823 -0.26000 -0.09356
v 0.05250 -0.26000 -0.08227
v 0.08043 -0.26000 -0.06106
v 0.09867 -0.26000 -0.03249
v 0.11500 0.02000 0.00000
v 0.10806 0.02000 0.03591
v 0.08810 0.02000 0.06749
v 0.05750 0.02000 0.09093
v 0.01997 0.02000 0.10340
v -0.01997 0.02000 0.10340
v -0.05750 0.02000 0.09093
v -0.08810 0.02000 0.06749
v -0.10806 0.02000 0.03591
v -0.11500 0.02000 0.00000
v -0.10806 0.02000 -0.03591
v -0.08810 0.02000 -0.06749
v -0.05750 0.02000 -0.09093
v -0.01997 0.02000 -0.10340
v 0.01997 0.02000 -0.10340
v 0.05750 0.02000 -0.09093
v 0.08810 0.02000 -0.06749
v 0.10806 0.02000 -0.03591
v 0.12500 0.26000 0.00000
v 0.11746 0.26000 0.03933
v 0.09576 0.26000 0.07392
v 0.06250 0.26000 0.09959
v 0.02171 0.26000 0.11325
v -0.02171 0.26000 0.11325
v -0.06250 0.26000 0.09959
v -0.09576 0.26000 0.07392
v -0.11746 0.26000 0.03933
v -0.12500 0.26000 0.00000
v -0.11746 0.26000 -0.03933
v -0.09576 0.26000 -0.07392
v -0.06250 0.26000 -0.09959
v -0.02171 0.26000 -0.11325
v 0.02171 0.26000 -0.11325
v 0.06250 0.26000 -0.09959
v 0.09576 0.26000 -0.07392
v 0.11746 0.26000 -0.03933
f 1 2 20
f 1 20 19
f 2 3 21
f 2 21 20
f 3 4 22
f 3 22 21
f 4 5 23
f 4 23 22
f 5 6 24
f 5 24 23
f 6 7 25
f 6 25 24
f 7 8 26
f 7 26 25
f 8 9 27
f 8 27 26
f 9 10 28
f 9 28 27
f 10 11 29
f 10 29 28
f 11 12 30
f 11 30 29
f 12 13 31
f 12 31 30
f 13 14 32
f 13 32 31
f 14 15 33
f 14 33 32
f 15 16 34
f 15 34 33
f 16 17 35
f 16 35 34
f 17 18 36
f 17 36 35
f 18 1 19
f 18 19 36
f 19 20 38
f 19 38 37
f 20 21 39
f 20 39 38
f 21 22 40
f 21 40 39
f 22 23 41
f 22 41 40
f 23 24 42
f 23 42 41
f 24 25 43
f 24 43 42
f 25 26 44
f 25 44 43
f 26 27 45
f 26 45 44
f 27 28 46
f 27 46 45
f 28 29 47
f 28 47 46
f 29 30 48
f 29 48 47
f 30 31 49
f 30 49 48
f 31 32 50
f 31 50 49
f 32 33 51
f 32 51 50
f 33 34 52
f 33 52 51
f 34 35 53
f 34 53 52
f 35 36 54
f 35 54 53
f 36 19 37
f 36 37 54
f 18 17 16 15 14 13 12 11 10 9 8 7 6 5 4 3 2 1
f 37 38 39 40 41 42 43 44 45 46 47 48 49 50 51 52 53 54
