o Sneaker
v 0.11500 -0.06000 0.00000
v 0.10937 -0.06000 0.05253
v 0.09304 -0.06000 0.09992
v 0.06760 -0.06000 0.13753
v 0.03554 -0.06000 0.16168
v 0.00000 -0.06000 0.17000
v -0.03554 -0.06000 0.16168
v -0.06760 -0.06000 0.13753
v -0.09304 -0.06000 0.09992
v -0.10937 -0.06000 0.05253
v -0.11500 -0.06000 0.00000
v -0.10937 -0.06000 -0.05253
v -0.09304 -0.06000 -0.09992
v -0.06760 -0.06000 -0.13753
v -0.03554 -0.06000 -0.16168
v -0.00000 -0.06000 -0.17000
v 0.03554 -0.06000 -0.16168
v 0.06760 -0.06000 -0.13753
v 0.09304 -0.06000 -0.09992
v 0.10937 -0.06000 -0.05253
v 0.12000 0.00000 0.00000
v 0.11413 0.00000 0.05562
v 0.09708 0.00000 0.10580
v 0.07053 0.00000 0.14562
v 0.03708 0.00000 0.17119
v 0.00000 0.00000 0.18000
v -0.03708 0.00000 0.17119
v -0.07053 0.00000 0.14562
v -0.09708 0.00000 0.10580
v -0.11413 0.00000 0.05562
v -0.12000 0.00000 0.00000
v -0.11413 0.00000 -0.05562
v -0.09708 0.00000 -0.10580
v -0.07053 0.00000 -0.14562
v -0.03708 0.00000 -0.17119
v -0.00000 0.00000 -0.18000
v 0.03708 0.00000 -0.17119
v 0.07053 0.00000 -0.14562
v 0.09708 0.00000 -0.10580
v 0.11413 0.00000 -0.05562
v 0.10500 0.07000 0.00000
v 0.09986 0.07000 0.04326
v 0.08495 0.07000 0.08229
v 0.06172 0.07000 0.11326
v 0.03245 0.07000 0.13315
v 0.00000 0.07000 0.14000
v -0.03245 0.07000 0.13315
v -0.06172 0.07000 0.11326
v -0.08495 0.07000 0.08229
v -0.09986 0.07000 0.04326
v -0.10500 0.07000 0.00000
v -0.09986 0.07000 -0.04326
v -0.08495 0.07000 -0.08229
v -0.06172 0.07000 -0.11326
v -0.03245 0.07000 -0.13315
v -0.00000 0.07000 -0.14000
v 0.03245 0.07000 -0.13315
v 0.06172 0.07000 -0.11326
v 0.08495 0.07000 -0.08229
v 0.09986 0.07000 -0.04326
f 1 2 22
f 1 22 21
f 2 3 23
f 2 23 22
f 3 4 24
f 3 24 23
f 4 5 25
f 4 25 24
f 5 6 26
f 5 26 25
f 6 7 27
f 6 27 26
f 7 8 28
f 7 28 27
f 8 9 29
f 8 29 28
f 9 10 30
f 9 30 29
f 10 11 31
f 10 31 30
f 11 12 32
f 11 32 31
f 12 13 33
f 12 33 32
f 13 14 34
f 13 34 33
f 14 15 35
f 14 35 34
f 15 16 36
f 15 36 35
f 16 17 37
f 16 37 36
f 17 18 38
f 17 38 37
f 18 19 39
f 18 39 38
f 19 20 40
f 19 40 39
f 20 1 21
f 20 21 40
f 21 22 42
f 21 42 41
f 22 23 43
f 22 43 42
f 23 24 44
f 23 44 43
f 24 25 45
f 24 45 44
f 25 26 46
f 25 46 45
f 26 27 47
f 26 47 46
f 27 28 48
f 27 48 47
f 28 29 49
f 28 49 48
f 29 30 50
f 29 50 49
f 30 31 51
f 30 51 50
f 31 32 52
f 31 52 51
f 32 33 53
f 32 53 52
f 33 34 54
f 33 54 53
f 34 35 55
f 34 55 54
f 35 36 56
f 35 56 55
f 36 37 57
f 36 57 56
f 37 38 58
f 37 58 57
f 38 39 59
f 38 59 58
f 39 40 60
f 39 60 59
f 40 21 41
f 40 41 60
f 20 19 18 17 16 15 14 13 12 11 10 9 8 7 6 5 4 3 2 1
f 41 42 43 44 45 46 47 48 49 50 51 52 53 54 55 56 57 58 59 60
