o TShirt
v 0.32000 -0.30000 0.00000
v 0.30910 -0.30000 0.06341
v 0.27713 -0.30000 0.12250
v 0.22627 -0.30000 0.17324
v 0.16000 -0.30000 0.21218
v 0.08282 -0.30000 0.23665
v 0.00000 -0.30000 0.24500
v -0.08282 -0.30000 0.23665
v -0.16000 -0.30000 0.21218
v -0.22627 -0.30000 0.17324
v -0.27713 -0.30000 0.12250
v -0.30910 -0.30000 0.06341
v -0.32000 -0.30000 0.00000
v -0.30910 -0.30000 -0.06341
v -0.27713 -0.30000 -0.12250
v -0.22627 -0.30000 -0.17324
v -0.16000 -0.30000 -0.21218
v -0.08282 -0.30000 -0.23665
v -0.00000 -0.30000 -0.24500
v 0.08282 -0.30000 -0.23665
v 0.16000 -0.30000 -0.21218
v 0.22627 -0.30000 -0.17324
v 0.27713 -0.30000 -0.12250
v 0.30910 -0.30000 -0.06341
v 0.34000 -0.20000 0.00000
v 0.32841 -0.20000 0.06600
v 0.29445 -0.20000 0.12750
v 0.24042 -0.20000 0.18031
v 0.17000 -0.20000 0.22084
v 0.08800 -0.20000 0.24631
v 0.00000 -0.20000 0.25500
v -0.08800 -0.20000 0.24631
v -0.17000 -0.20000 0.22084
v -0.24042 -0.20000 0.18031
v -0.29445 -0.20000 0.12750
v -0.32841 -0.20000 0.06600
v -0.34000 -0.20000 0.00000
v -0.32841 -0.20000 -0.06600
v -0.29445 -0.20000 -0.12750
v -0.24042 -0.20000 -0.18031
v -0.17000 -0.20000 -0.22084
v -0.08800 -0.20000 -0.24631
v -0.00000 -0.20000 -0.25500
v 0.08800 -0.20000 -0.24631
v 0.17000 -0.20000 -0.22084
v 0.24042 -0.20000 -0.18031
v 0.29445 -0.20000 -0.12750
v 0.32841 -0.20000 -0.06600
v 0.36500 0.05000 0.00000
v 0.35256 0.05000 0.07118
v 0.31610 0.05000 0.13750
v 0.25809 0.05000 0.19445
v 0.18250 0.05000 0.23816
v 0.09447 0.05000 0.26563
v 0.00000 0.05000 0.27500
v -0.09447 0.05000 0.26563
v -0.18250 0.05000 0.23816
v -0.25809 0.05000 0.19445
v -0.31610 0.05000 0.13750
v -0.35256 0.05000 0.07118
v -0.36500 0.05000 0.00000
v -0.35256 0.05000 -0.07118
v -0.31610 0.05000 -0.13750
v -0.25809 0.05000 -0.19445
v -0.18250 0.05000 -0.23816
v -0.09447 0.05000 -0.26563
v -0.00000 0.05000 -0.27500
v 0.09447 0.05000 -0.26563
v 0.18250 0.05000 -0.23816
v 0.25809 0.05000 -0.19445
v 0.31610 0.05000 -0.13750
v 0.35256 0.05000 -0.07118
v 0.35000 0.22000 0.00000
v 0.33807 0.22000 0.06859
v 0.30311 0.22000 0.13250
v 0.24749 0.22000 0.18738
v 0.17500 0.22000 0.22950
v 0.09059 0.22000 0.25597
v 0.00000 0.22000 0.26500
v -0.09059 0.22000 0.25597
v -0.17500 0.22000 0.22950
v -0.24749 0.22000 0.18738
v -0.30311 0.22000 0.13250
v -0.33807 0.22000 0.06859
v -0.35000 0.22000 0.00000
v -0.33807 0.22000 -0.06859
v -0.30311 0.22000 -0.13250
v -0.24749 0.22000 -0.18738
v -0.17500 0.22000 -0.22950
v -0.09059 0.22000 -0.25597
v -0.00000 0.22000 -0.26500
v 0.09059 0.22000 -0.25597
v 0.17500 0.22000 -0.22950
v 0.24749 0.22000 -0.18738
v 0.30311 0.22000 -0.13250
v 0.33807 0.22000 -0.06859
v 0.29000 0.30000 0.00000
v 0.28012 0.30000 0.05823
v 0.25115 0.30000 0.11250
v 0.20506 0.30000 0.15910
v 0.14500 0.30000 0.19486
v 0.07506 0.30000 0.21733
v 0.00000 0.30000 0.22500
v -0.07506 0.30000 0.21733
v -0.14500 0.30000 0.19486
v -0.20506 0.30000 0.15910
v -0.25115 0.30000 0.11250
v -0.28012 0.30000 0.05823
v -0.29000 0.30000 0.00000
v -0.28012 0.30000 -0.05823
v -0.25115 0.30000 -0.11250
v -0.20506 0.30000 -0.15910
v -0.14500 0.30000 -0.19486
v -0.07506 0.30000 -0.21733
v -0.00000 0.30000 -0.22500
v 0.07506 0.30000 -0.21733
v 0.14500 0.30000 -0.19486
v 0.20506 0.30000 -0.15910
v 0.25115 0.30000 -0.11250
v 0.28012 0.30000 -0.05823
f 1 2 26
f 1 26 25
f 2 3 27
f 2 27 26
f 3 4 28
f 3 28 27
f 4 5 29
f 4 29 28
f 5 6 30
f 5 30 29
f 6 7 31
f 6 31 30
f 7 8 32
f 7 32 31
f 8 9 33
f 8 33 32
f 9 10 34
f 9 34 33
f 10 11 35
f 10 35 34
f 11 12 36
f 11 36 35
f 12 13 37
f 12 37 36
f 13 14 38
f 13 38 37
f 14 15 39
f 14 39 38
f 15 16 40
f 15 40 39
f 16 17 41
f 16 41 40
f 17 18 42
f 17 42 41
f 18 19 43
f 18 43 42
f 19 20 44
f 19 44 43
f 20 21 45
f 20 45 44
f 21 22 46
f 21 46 45
f 22 23 47
f 22 47 46
f 23 24 48
f 23 48 47
f 24 1 25
f 24 25 48
f 25 26 50
f 25 50 49
f 26 27 51
f 26 51 50
f 27 28 52
f 27 52 51
f 28 29 53
f 28 53 52
f 29 30 54
f 29 54 53
f 30 31 55
f 30 55 54
f 31 32 56
f 31 56 55
f 32 33 57
f 32 57 56
f 33 34 58
f 33 58 57
f 34 35 59
f 34 59 58
f 35 36 60
f 35 60 59
f 36 37 61
f 36 61 60
f 37 38 62
f 37 62 61
f 38 39 63
f 38 63 62
f 39 40 64
f 39 64 63
f 40 41 65
f 40 65 64
f 41 42 66
f 41 66 65
f 42 43 67
f 42 67 66
f 43 44 68
f 43 68 67
f 44 45 69
f 44 69 68
f 45 46 70
f 45 70 69
f 46 47 71
f 46 71 70
f 47 48 72
f 47 72 71
f 48 25 49
f 48 49 72
f 49 50 74
f 49 74 73
f 50 51 75
f 50 75 74
f 51 52 76
f 51 76 75
f 52 53 77
f 52 77 76
f 53 54 78
f 53 78 77
f 54 55 79
f 54 79 78
f 55 56 80
f 55 80 79
f 56 57 81
f 56 81 80
f 57 58 82
f 57 82 81
f 58 59 83
f 58 83 82
f 59 60 84
f 59 84 83
f 60 61 85
f 60 85 84
f 61 62 86
f 61 86 85
f 62 63 87
f 62 87 86
f 63 64 88
f 63 88 87
f 64 65 89
f 64 89 88
f 65 66 90
f 65 90 89
f 66 67 91
f 66 91 90
f 67 68 92
f 67 92 91
f 68 69 93
f 68 93 92
f 69 70 94
f 69 94 93
f 70 71 95
f 70 95 94
f 71 72 96
f 71 96 95
f 72 49 73
f 72 73 96
f 73 74 98
f 73 98 97
f 74 75 99
f 74 99 98
f 75 76 100
f 75 100 99
f 76 77 101
f 76 101 100
f 77 78 102
f 77 102 101
f 78 79 103
f 78 103 102
f 79 80 104
f 79 104 103
f 80 81 105
f 80 105 104
f 81 82 106
f 81 106 105
f 82 83 107
f 82 107 106
f 83 84 108
f 83 108 107
f 84 85 109
f 84 109 108
f 85 86 110
f 85 110 109
f 86 87 111
f 86 111 110
f 87 88 112
f 87 112 111
f 88 89 113
f 88 113 112
f 89 90 114
f 89 114 113
f 90 91 115
f 90 115 114
f 91 92 116
f 91 116 115
f 92 93 117
f 92 117 116
f 93 94 118
f 93 118 117
f 94 95 119
f 94 119 118
f 95 96 120
f 95 120 119
f 96 73 97
f 96 97 120
f 24 23 22 21 20 19 18 17 16 15 14 13 12 11 10 9 8 7 6 5 4 3 2 1
f 97 98 99 100 101 102 103 104 105 106 107 108 109 110 111 112 113 114 115 116 117 118 119 120
